<?xml version="1.0" encoding="utf-8"?>
<!-- Generator: Adobe Illustrator 23.0.3, SVG Export Plug-In . SVG Version: 6.00 Build 0)  -->
<svg version="1.1" id="Icons" xmlns="http://www.w3.org/2000/svg" xmlns:xlink="http://www.w3.org/1999/xlink" x="0px" y="0px"
	 viewBox="0 0 32 32" style="enable-background:new 0 0 32 32;" xml:space="preserve">
<style type="text/css">
	.st0{fill:fff;stroke:#000000;stroke-width:2;stroke-linecap:round;stroke-linejoin:round;stroke-miterlimit:10;}
</style>
<path  fill="#fff" d="M24,16c-4.4,0-8,3.6-8,8s3.6,8,8,8s8-3.6,8-8S28.4,16,24,16z M27,25h-2v2c0,0.6-0.4,1-1,1s-1-0.4-1-1v-2h-2
	c-0.6,0-1-0.4-1-1s0.4-1,1-1h2v-2c0-0.6,0.4-1,1-1s1,0.4,1,1v2h2c0.6,0,1,0.4,1,1S27.6,25,27,25z"/>
<path  fill="#fff" d="M24,14c0.2,0,0.5,0,0.7,0c0.5-1.6,0.3-3.2-0.5-4.7c-0.9-1.6-2.4-2.8-4.1-3.2c-1.5-0.3-2.9-0.1-4.3,0.6
	c-1.3,0.7-3.4,0.7-4.8,0C9.7,6,8.3,5.8,6.8,6.1C5.1,6.5,3.5,7.7,2.7,9.3c-0.8,1.5-1,3.1-0.5,4.8l-2,6.6c-0.3,1-0.1,2.1,0.5,2.9
	C1.3,24.5,2.3,25,3.4,25c1.1,0,2-0.5,2.7-1.3L9.5,19h5.8C17.1,16,20.3,14,24,14z M18.1,9.6c0-0.1,0.1-0.2,0.2-0.3
	c0.4-0.4,1-0.4,1.4,0c0.1,0.1,0.2,0.2,0.2,0.3C20,9.7,20,9.9,20,10c0,0.1,0,0.3-0.1,0.4s-0.1,0.2-0.2,0.3C19.5,10.9,19.3,11,19,11
	s-0.5-0.1-0.7-0.3c-0.1-0.1-0.2-0.2-0.2-0.3S18,10.1,18,10C18,9.9,18,9.7,18.1,9.6z M16,11.8c0-0.1,0-0.1,0.1-0.2
	c0-0.1,0-0.1,0.1-0.2c0-0.1,0.1-0.1,0.1-0.1c0,0,0.1-0.1,0.1-0.1c0.1,0,0.1-0.1,0.2-0.1c0.1,0,0.1,0,0.2-0.1c0.3-0.1,0.7,0,0.9,0.3
	c0,0,0.1,0.1,0.1,0.1c0,0.1,0.1,0.1,0.1,0.2c0,0.1,0,0.1,0.1,0.2c0,0.1,0,0.1,0,0.2s0,0.1,0,0.2c0,0.1,0,0.1-0.1,0.2
	c0,0.1,0,0.1-0.1,0.2c0,0.1-0.1,0.1-0.1,0.2C17.5,12.9,17.3,13,17,13c-0.1,0-0.1,0-0.2,0c-0.1,0-0.1,0-0.2-0.1
	c-0.1,0-0.1-0.1-0.2-0.1c0,0-0.1-0.1-0.1-0.1c0-0.1-0.1-0.1-0.1-0.2c0,0-0.1-0.1-0.1-0.2c0-0.1,0-0.1-0.1-0.2c0-0.1,0-0.1,0-0.2
	S16,11.9,16,11.8z M10,13H9v1c0,0.6-0.4,1-1,1s-1-0.4-1-1v-1H6c-0.6,0-1-0.4-1-1s0.4-1,1-1h1v-1c0-0.6,0.4-1,1-1s1,0.4,1,1v1h1
	c0.6,0,1,0.4,1,1S10.6,13,10,13z"/>
</svg>
