<svg id="Capa_1" data-name="Capa 1" xmlns="http://www.w3.org/2000/svg" viewBox="0 0 234.59 235.89"><defs><style>.cls-1{fill:#1d1d1b;}</style></defs><path class="cls-1" d="M101.2,218.91v24l-5.79-4.68a388.56,388.56,0,0,1-43.8-42.82C21.81,161.17,6.7,130.46,6.7,104.1v-2.61a94.5,94.5,0,0,1,189,0v2.61c0,2.22-.11,4.46-.33,6.74L176.89,94a76.06,76.06,0,0,0-151.75,7.51v2.61C25.14,148.63,82.52,202.54,101.2,218.91Zm0-156.6A39.18,39.18,0,1,1,62,101.49,39.22,39.22,0,0,1,101.2,62.31Zm0,18.44A20.74,20.74,0,1,0,122,101.49,20.76,20.76,0,0,0,101.2,80.75Z" transform="translate(-6.7 -6.99)"/><g id="Iconly_Bold_Game" data-name="Iconly/Bold/Game"><g id="Game"><path class="cls-1" d="M240.34,135.67a234.42,234.42,0,0,1-2.1,58.88c-3.59,18.31-14.44,33.61-34.24,33.61-7.93.16-15.86.22-23.85.22s-16-.06-24-.22c-19.8,0-34.23-14.12-34.23-33.61v-25c0-19.5,14.43-33.62,34.29-33.62,7.48-.11,15.12-.22,22.88-.22Zm-77.2,32a4.23,4.23,0,0,0-4.27,4.2h0v5.89h-6.05a4.2,4.2,0,1,0,0,8.4h6.05v5.94a4.28,4.28,0,0,0,8.55,0h0V186.2h6a4.2,4.2,0,1,0,0-8.4h-6v-5.89A4.28,4.28,0,0,0,163.14,167.71ZM208,187.6h-.57a4.2,4.2,0,1,0,0,8.4H208a4.2,4.2,0,1,0,0-8.4Zm-9.76-19.27h-.57a4.2,4.2,0,1,0,0,8.4h.57a4.2,4.2,0,1,0,0-8.4Z" transform="translate(-6.7 -6.99)"/></g></g></svg>