<?xml version="1.0" encoding="UTF-8" standalone="no"?> <svg id="Layer_1" data-name="Layer 1" xmlns="http://www.w3.org/2000/svg" viewBox="0 0 128 128"><defs><style>.cls-1{fill:#fff;}</style></defs><title>n</title><path class="cls-1" d="M124.33942,123.96867a2.58,2.58,0,0,1-1.30083.34711H4.96466a2.60884,2.60884,0,0,1-2.57246-3.07852c1.09646-6.05975,3.48077-19.08751,4.03225-20.74193,2.73466-8.1748,9.52428-12.087,16.88485-15.14284.94076-.38928,1.89124-.76559,2.84172-1.13539q9.62-3.73221,19.24647-7.46437a20.20855,20.20855,0,0,0,37.20829,0q9.62487,3.73218,19.24647,7.46437c.95048.3698,1.901.74611,2.84172,1.13539,7.36056,3.05581,14.15018,6.968,16.8816,15.14284.55148,1.65442,2.939,14.68218,4.03225,20.74193A2.60937,2.60937,0,0,1,124.33942,123.96867Z"/><path class="cls-1" d="M87.27408,50.68491l3.62066-18.65724A24.97838,24.97838,0,0,0,66.14894,3.68422H61.84933A24.97559,24.97559,0,0,0,37.10572,32.02767l3.61957,18.65724a23.71054,23.71054,0,0,0,46.5488,0"/></svg>